# xmcd
#
# Track frame offsets:
#	150
#	21455
#	34930
#	43460
#	56380
#	71905
#	90105
#	99655
#	115485
#	130145
#	144000
#	159220
#	181605
#	194505
#
# Disc length: 2825 seconds
#
# Revision: 0
# Processed by: cddbd v1.5.2PL0 Copyright (c) Steve Scherf et al.
# Submitted via: EasyCDDAExtractor 10.2.0.1
#
DISCID=bc0b070e
DTITLE=Os Guapos do Fandango - Vol IX
DYEAR=1900
DGENRE=
TTITLE0=Percorrendo os Municípios
TTITLE1=25 Anos
TTITLE2=Fazendo Outra Vez
TTITLE3=Tatiana
TTITLE4=A Idade do Bicho Homem
TTITLE5=Vem Pra Mim
TTITLE6=Menina Discoteca
TTITLE7=Passarinho Pena Amarela
TTITLE8=Internado na Cama
TTITLE9=Os Homens Estão Caindo
TTITLE10=De Espingarda e Funda
TTITLE11=Velha Virgem
TTITLE12=Você é Tudo
TTITLE13=O Cinqüentinha
EXTD=
EXTT0=
EXTT1=
EXTT2=
EXTT3=
EXTT4=
EXTT5=
EXTT6=
EXTT7=
EXTT8=
EXTT9=
EXTT10=
EXTT11=
EXTT12=
EXTT13=
PLAYORDER=
